# xmcd CD database file
#
# Track frame offsets:
#	150
#	16227
#	27965
#	44977
#	56982
#	68950
#	87065
#	100060
#	110527
#	124407
#	136960
#	151025
#
# Disc length: 2267 seconds
#
# Revision: 2
# Processed by: cddbd v1.5.2PL0 Copyright (c) Steve Scherf et al.
# Submitted via: CDex 1.51
#
DISCID=a308d90c
DTITLE=Various Artist - Classic Country Volume 2
DYEAR=2000
DGENRE=Country
TTITLE0=The Charlie Daniels Band - The Devil Went Down To Georgia
TTITLE1=Johnny Paycheck - Take This Job And Shove It
TTITLE2=Johnny Cash - A Boy Named Sue
TTITLE3=Tammy Wynette - Stand By Your Man
TTITLE4=Charlie Rich - The Most Beautiful Girl
TTITLE5=Billy Swan - I Can Help
TTITLE6=Lynn Anderson - Rose Garden
TTITLE7=Willie Nelson - Blue Eyes Crying In The Rain
TTITLE8=Tanya Tucker - What's Your Mama's Name
TTITLE9=Mickey Gilley - City Lights
TTITLE10=George Jones - The Grand Tour
TTITLE11=Marty Robbins - El Paso City
EXTD=YEAR: 2000
EXTT0=
EXTT1=
EXTT2=
EXTT3=
EXTT4=
EXTT5=
EXTT6=
EXTT7=
EXTT8=
EXTT9=
EXTT10=
EXTT11=
PLAYORDER=
